<svg xmlns="http://www.w3.org/2000/svg" xmlns:xlink="http://www.w3.org/1999/xlink" width="415" zoomAndPan="magnify" viewBox="0 0 311.25 37.5" height="50" preserveAspectRatio="xMidYMid meet" version="1.0"><defs><g/><clipPath id="84c55ff84f"><path d="M 1.675781 0 L 308.832031 0 L 308.832031 37.007812 L 1.675781 37.007812 Z M 1.675781 0 " clip-rule="nonzero"/></clipPath></defs><g clip-path="url(#84c55ff84f)"><path fill="#ffffff" d="M 1.675781 0 L 308.832031 0 L 308.832031 37.007812 L 1.675781 37.007812 Z M 1.675781 0 " fill-opacity="1" fill-rule="nonzero"/><path fill="#ffffff" d="M 1.675781 0 L 308.832031 0 L 308.832031 37.007812 L 1.675781 37.007812 Z M 1.675781 0 " fill-opacity="1" fill-rule="nonzero"/></g><g fill="#000000" fill-opacity="1"><g transform="translate(32.971319, 28.495066)"><g><path d="M 12.15625 -0.53125 L 10.09375 -6.609375 L 4.53125 -6.609375 L 2.359375 -0.53125 L 4.46875 -0.53125 L 4.46875 0 L 0.171875 0 L 0.171875 -0.53125 L 1.484375 -0.53125 L 8.65625 -19.859375 L 10.96875 -19.859375 L 18.0625 -0.53125 L 19.34375 -0.53125 L 19.34375 0 L 10.15625 0 L 10.15625 -0.53125 Z M 7.421875 -14.59375 L 4.78125 -7.234375 L 9.875 -7.234375 Z M 7.421875 -14.59375 "/></g></g></g><g fill="#000000" fill-opacity="1"><g transform="translate(52.49012, 28.495066)"><g><path d="M 0 -12.875 L 0 -13.390625 L 8.40625 -13.390625 L 8.40625 -12.875 L 6.640625 -12.875 L 10.015625 -3.546875 L 13.046875 -12.875 L 11.171875 -12.875 L 11.171875 -13.390625 L 14.96875 -13.390625 L 14.96875 -12.875 L 13.71875 -12.875 L 9.5625 0 L 6.359375 0 L 1.15625 -12.875 Z M 0 -12.875 "/></g></g></g><g fill="#000000" fill-opacity="1"><g transform="translate(67.452666, 28.495066)"><g><path d="M 3.6875 0.28125 C 2.875 0.28125 2.265625 0.0390625 1.859375 -0.4375 C 1.460938 -0.914062 1.265625 -1.492188 1.265625 -2.171875 C 1.265625 -2.859375 1.472656 -3.4375 1.890625 -3.90625 C 2.316406 -4.375 2.914062 -4.609375 3.6875 -4.609375 C 4.457031 -4.609375 5.066406 -4.410156 5.515625 -4.015625 C 5.960938 -3.628906 6.1875 -3.039062 6.1875 -2.25 C 6.1875 -1.457031 5.972656 -0.835938 5.546875 -0.390625 C 5.128906 0.0546875 4.507812 0.28125 3.6875 0.28125 Z M 3.6875 0.28125 "/></g></g></g><g fill="#000000" fill-opacity="1"><g transform="translate(74.905808, 28.495066)"><g/></g></g><g fill="#000000" fill-opacity="1"><g transform="translate(79.968327, 28.495066)"><g><path d="M 9.140625 -0.3125 C 10.078125 -0.3125 10.90625 -0.5625 11.625 -1.0625 C 12.351562 -1.570312 12.71875 -2.335938 12.71875 -3.359375 C 12.71875 -4.378906 12.328125 -5.160156 11.546875 -5.703125 C 10.765625 -6.253906 9.65625 -6.726562 8.21875 -7.125 C 6.789062 -7.53125 5.753906 -7.882812 5.109375 -8.1875 C 4.460938 -8.488281 3.847656 -8.878906 3.265625 -9.359375 C 2.097656 -10.335938 1.515625 -11.847656 1.515625 -13.890625 C 1.515625 -15.554688 2.109375 -16.988281 3.296875 -18.1875 C 4.492188 -19.394531 6.125 -20 8.1875 -20 C 9.175781 -20 10.207031 -19.851562 11.28125 -19.5625 C 12.363281 -19.269531 13.035156 -19.125 13.296875 -19.125 C 13.566406 -19.125 13.800781 -19.3125 14 -19.6875 L 14.3125 -19.6875 L 14.515625 -14 L 14.0625 -14 C 13.164062 -15.632812 12.222656 -16.941406 11.234375 -17.921875 C 10.253906 -18.910156 9.1875 -19.40625 8.03125 -19.40625 C 6.875 -19.40625 5.976562 -19.132812 5.34375 -18.59375 C 4.707031 -18.0625 4.390625 -17.347656 4.390625 -16.453125 C 4.390625 -15.566406 4.769531 -14.882812 5.53125 -14.40625 C 6.289062 -13.9375 7.222656 -13.550781 8.328125 -13.25 C 9.429688 -12.945312 10.15625 -12.738281 10.5 -12.625 C 10.851562 -12.507812 11.285156 -12.351562 11.796875 -12.15625 C 12.316406 -11.96875 12.738281 -11.765625 13.0625 -11.546875 C 13.394531 -11.328125 13.742188 -11.050781 14.109375 -10.71875 C 14.472656 -10.394531 14.757812 -10.035156 14.96875 -9.640625 C 15.46875 -8.742188 15.71875 -7.675781 15.71875 -6.4375 C 15.71875 -4.414062 15.082031 -2.789062 13.8125 -1.5625 C 12.550781 -0.332031 10.890625 0.28125 8.828125 0.28125 L 8.46875 0.28125 L 7.65625 1.65625 C 8.039062 1.601562 8.347656 1.578125 8.578125 1.578125 C 10.546875 1.578125 11.53125 2.410156 11.53125 4.078125 C 11.53125 4.847656 11.21875 5.523438 10.59375 6.109375 C 9.976562 6.703125 9.015625 7 7.703125 7 C 6.835938 7 6.140625 6.828125 5.609375 6.484375 C 5.078125 6.140625 4.8125 5.734375 4.8125 5.265625 C 4.8125 4.796875 4.921875 4.445312 5.140625 4.21875 C 5.367188 3.988281 5.660156 3.875 6.015625 3.875 C 6.648438 3.875 7.082031 4.234375 7.3125 4.953125 L 6.578125 5.515625 C 6.578125 5.773438 6.648438 6.007812 6.796875 6.21875 C 6.953125 6.4375 7.203125 6.546875 7.546875 6.546875 C 7.898438 6.546875 8.15625 6.378906 8.3125 6.046875 C 8.46875 5.722656 8.546875 5.21875 8.546875 4.53125 C 8.546875 3.851562 8.53125 3.375 8.5 3.09375 C 8.4375 2.414062 8.15625 2.078125 7.65625 2.078125 C 7.382812 2.078125 7.101562 2.113281 6.8125 2.1875 L 6.71875 1.9375 L 7.734375 0.21875 C 6.890625 0.164062 5.921875 0.0234375 4.828125 -0.203125 C 3.742188 -0.441406 3.109375 -0.5625 2.921875 -0.5625 C 2.734375 -0.5625 2.582031 -0.492188 2.46875 -0.359375 C 2.363281 -0.234375 2.242188 -0.0195312 2.109375 0.28125 L 1.71875 0.28125 L 1.4375 -6.40625 L 1.90625 -6.40625 C 2.738281 -4.78125 3.796875 -3.359375 5.078125 -2.140625 C 6.359375 -0.921875 7.710938 -0.3125 9.140625 -0.3125 Z M 9.140625 -0.3125 "/></g></g></g><g fill="#000000" fill-opacity="1"><g transform="translate(96.843374, 28.495066)"><g><path d="M 7.671875 0.28125 C 5.253906 0.28125 3.441406 -0.335938 2.234375 -1.578125 C 1.023438 -2.828125 0.421875 -4.5625 0.421875 -6.78125 C 0.421875 -9.007812 1.097656 -10.710938 2.453125 -11.890625 C 3.816406 -13.078125 5.550781 -13.671875 7.65625 -13.671875 C 11.90625 -13.671875 13.945312 -11.53125 13.78125 -7.25 L 5.84375 -7.25 L 5.84375 -6.15625 C 5.84375 -4.320312 6.078125 -2.9375 6.546875 -2 C 7.015625 -1.0625 7.832031 -0.59375 9 -0.59375 C 11.175781 -0.59375 12.601562 -1.753906 13.28125 -4.078125 L 13.78125 -4 C 13.425781 -2.644531 12.785156 -1.59375 11.859375 -0.84375 C 10.929688 -0.09375 9.535156 0.28125 7.671875 0.28125 Z M 5.875 -7.8125 L 8.78125 -7.8125 L 8.78125 -9.203125 C 8.78125 -10.710938 8.6875 -11.742188 8.5 -12.296875 C 8.320312 -12.859375 7.96875 -13.140625 7.4375 -13.140625 C 6.90625 -13.140625 6.507812 -12.84375 6.25 -12.25 C 6 -11.65625 5.875 -10.640625 5.875 -9.203125 Z M 5.875 -7.8125 "/></g></g></g><g fill="#000000" fill-opacity="1"><g transform="translate(111.35592, 28.495066)"><g><path d="M 0 -12.875 L 0 -13.390625 L 8.40625 -13.390625 L 8.40625 -12.875 L 6.640625 -12.875 L 10.015625 -3.546875 L 13.046875 -12.875 L 11.171875 -12.875 L 11.171875 -13.390625 L 14.96875 -13.390625 L 14.96875 -12.875 L 13.71875 -12.875 L 9.5625 0 L 6.359375 0 L 1.15625 -12.875 Z M 0 -12.875 "/></g></g></g><g fill="#000000" fill-opacity="1"><g transform="translate(126.318467, 28.495066)"><g><path d="M 0 -12.875 L 0 -13.390625 L 8.40625 -13.390625 L 8.40625 -12.875 L 6.640625 -12.875 L 10.015625 -3.546875 L 13.046875 -12.875 L 11.171875 -12.875 L 11.171875 -13.390625 L 14.96875 -13.390625 L 14.96875 -12.875 L 13.71875 -12.875 L 9.5625 0 L 6.359375 0 L 1.15625 -12.875 Z M 0 -12.875 "/></g></g></g><g fill="#000000" fill-opacity="1"><g transform="translate(141.281014, 28.495066)"><g><path d="M 7.03125 -6.609375 L 7.84375 -6.609375 L 7.84375 -8.78125 C 7.84375 -10.5625 7.742188 -11.753906 7.546875 -12.359375 C 7.347656 -12.972656 6.96875 -13.28125 6.40625 -13.28125 C 6.070312 -13.28125 5.769531 -13.1875 5.5 -13 C 5.226562 -12.820312 5.09375 -12.578125 5.09375 -12.265625 C 5.09375 -11.960938 5.148438 -11.648438 5.265625 -11.328125 L 5.96875 -11.328125 C 6.113281 -10.941406 6.1875 -10.46875 6.1875 -9.90625 C 6.1875 -9.351562 5.953125 -8.875 5.484375 -8.46875 C 5.015625 -8.070312 4.425781 -7.875 3.71875 -7.875 C 2.101562 -7.875 1.296875 -8.648438 1.296875 -10.203125 C 1.296875 -12.515625 3.253906 -13.671875 7.171875 -13.671875 C 9.398438 -13.671875 10.941406 -13.289062 11.796875 -12.53125 C 12.648438 -11.769531 13.078125 -10.378906 13.078125 -8.359375 L 13.078125 -2.640625 C 13.078125 -1.671875 13.347656 -1.1875 13.890625 -1.1875 C 14.523438 -1.1875 14.898438 -2.148438 15.015625 -4.078125 L 15.4375 -4.046875 C 15.363281 -2.398438 15.054688 -1.265625 14.515625 -0.640625 C 13.972656 -0.0234375 13.082031 0.28125 11.84375 0.28125 C 9.59375 0.28125 8.296875 -0.410156 7.953125 -1.796875 C 7.710938 -1.085938 7.347656 -0.5625 6.859375 -0.21875 C 6.367188 0.113281 5.65625 0.28125 4.71875 0.28125 C 1.945312 0.28125 0.5625 -0.851562 0.5625 -3.125 C 0.5625 -4.457031 1.085938 -5.367188 2.140625 -5.859375 C 3.203125 -6.359375 4.832031 -6.609375 7.03125 -6.609375 Z M 5.90625 -3.15625 C 5.90625 -2.175781 5.957031 -1.546875 6.0625 -1.265625 C 6.164062 -0.984375 6.363281 -0.84375 6.65625 -0.84375 C 6.945312 -0.84375 7.21875 -1.082031 7.46875 -1.5625 C 7.71875 -2.039062 7.84375 -2.703125 7.84375 -3.546875 L 7.84375 -6.15625 L 7.65625 -6.15625 C 6.488281 -6.15625 5.90625 -5.300781 5.90625 -3.59375 Z M 5.90625 -3.15625 "/></g></g></g><g fill="#000000" fill-opacity="1"><g transform="translate(156.721683, 28.495066)"><g><path d="M 0.171875 -21.09375 L 7.0625 -21.09375 L 7.0625 -0.5 L 8.640625 -0.5 L 8.640625 0 L 0.28125 0 L 0.28125 -0.5 L 1.828125 -0.5 L 1.828125 -20.59375 L 0.171875 -20.59375 Z M 0.171875 -21.09375 "/></g></g></g><g fill="#000000" fill-opacity="1"><g transform="translate(165.609213, 28.495066)"><g/></g></g><g fill="#000000" fill-opacity="1"><g transform="translate(170.671733, 28.495066)"><g><path d="M 0.703125 -19.6875 L 9.28125 -19.6875 L 9.28125 -19.15625 L 7.734375 -19.15625 L 7.734375 -10.265625 L 7.953125 -10.328125 L 15.890625 -19.15625 L 13.671875 -19.15625 L 13.671875 -19.6875 L 18.59375 -19.6875 L 18.59375 -19.15625 L 16.90625 -19.15625 L 12.0625 -13.75 L 18.8125 -0.53125 L 20.328125 -0.53125 L 20.328125 0 L 11.3125 0 L 11.3125 -0.53125 L 12.625 -0.53125 L 7.984375 -9.5 L 7.734375 -9.453125 L 7.734375 -0.53125 L 9.28125 -0.53125 L 9.28125 0 L 0.703125 0 L 0.703125 -0.53125 L 2.25 -0.53125 L 2.25 -19.15625 L 0.703125 -19.15625 Z M 0.703125 -19.6875 "/></g></g></g><g fill="#000000" fill-opacity="1"><g transform="translate(191.315538, 28.495066)"><g><path d="M 16.734375 0 L 10.328125 0 L 10.015625 -2.046875 C 9.710938 -1.296875 9.265625 -0.71875 8.671875 -0.3125 C 8.085938 0.0820312 7.210938 0.28125 6.046875 0.28125 C 3.140625 0.28125 1.6875 -1.285156 1.6875 -4.421875 L 1.6875 -12.875 L 0.109375 -12.875 L 0.109375 -13.390625 L 6.921875 -13.390625 L 6.921875 -3.734375 C 6.921875 -2.609375 7 -1.867188 7.15625 -1.515625 C 7.3125 -1.160156 7.628906 -0.984375 8.109375 -0.984375 C 8.585938 -0.984375 9.015625 -1.273438 9.390625 -1.859375 C 9.765625 -2.441406 9.953125 -3.25 9.953125 -4.28125 L 9.953125 -12.875 L 8.65625 -12.875 L 8.65625 -13.390625 L 15.1875 -13.390625 L 15.1875 -0.5 L 16.734375 -0.5 Z M 16.734375 0 "/></g></g></g><g fill="#000000" fill-opacity="1"><g transform="translate(208.331212, 28.495066)"><g><path d="M 9.671875 -12.59375 C 8.984375 -12.59375 8.375 -12.144531 7.84375 -11.25 C 7.320312 -10.351562 7.0625 -9.285156 7.0625 -8.046875 L 7.0625 -0.5 L 9.0625 -0.5 L 9.0625 0 L 0.28125 0 L 0.28125 -0.5 L 1.828125 -0.5 L 1.828125 -12.875 L 0.28125 -12.875 L 0.28125 -13.390625 L 7.0625 -13.390625 L 7.0625 -10.6875 C 7.300781 -11.644531 7.765625 -12.378906 8.453125 -12.890625 C 9.148438 -13.410156 9.941406 -13.671875 10.828125 -13.671875 C 11.710938 -13.671875 12.429688 -13.421875 12.984375 -12.921875 C 13.535156 -12.421875 13.8125 -11.71875 13.8125 -10.8125 C 13.8125 -9.90625 13.601562 -9.207031 13.1875 -8.71875 C 12.78125 -8.226562 12.148438 -7.984375 11.296875 -7.984375 C 10.441406 -7.984375 9.8125 -8.265625 9.40625 -8.828125 C 9 -9.390625 8.945312 -10.171875 9.25 -11.171875 L 10.265625 -11.171875 C 10.734375 -12.117188 10.535156 -12.59375 9.671875 -12.59375 Z M 9.671875 -12.59375 "/></g></g></g><g fill="#000000" fill-opacity="1"><g transform="translate(222.25313, 28.495066)"><g><path d="M 16.734375 0 L 10.328125 0 L 10.015625 -2.046875 C 9.710938 -1.296875 9.265625 -0.71875 8.671875 -0.3125 C 8.085938 0.0820312 7.210938 0.28125 6.046875 0.28125 C 3.140625 0.28125 1.6875 -1.285156 1.6875 -4.421875 L 1.6875 -12.875 L 0.109375 -12.875 L 0.109375 -13.390625 L 6.921875 -13.390625 L 6.921875 -3.734375 C 6.921875 -2.609375 7 -1.867188 7.15625 -1.515625 C 7.3125 -1.160156 7.628906 -0.984375 8.109375 -0.984375 C 8.585938 -0.984375 9.015625 -1.273438 9.390625 -1.859375 C 9.765625 -2.441406 9.953125 -3.25 9.953125 -4.28125 L 9.953125 -12.875 L 8.65625 -12.875 L 8.65625 -13.390625 L 15.1875 -13.390625 L 15.1875 -0.5 L 16.734375 -0.5 Z M 16.734375 0 "/></g></g></g><g fill="#000000" fill-opacity="1"><g transform="translate(239.268804, 28.495066)"><g><path d="M 0.171875 -21.09375 L 7.0625 -21.09375 L 7.0625 -0.5 L 8.640625 -0.5 L 8.640625 0 L 0.28125 0 L 0.28125 -0.5 L 1.828125 -0.5 L 1.828125 -20.59375 L 0.171875 -20.59375 Z M 0.171875 -21.09375 "/></g></g></g><g fill="#000000" fill-opacity="1"><g transform="translate(248.156345, 28.495066)"><g><path d="M 7.03125 -6.609375 L 7.84375 -6.609375 L 7.84375 -8.78125 C 7.84375 -10.5625 7.742188 -11.753906 7.546875 -12.359375 C 7.347656 -12.972656 6.96875 -13.28125 6.40625 -13.28125 C 6.070312 -13.28125 5.769531 -13.1875 5.5 -13 C 5.226562 -12.820312 5.09375 -12.578125 5.09375 -12.265625 C 5.09375 -11.960938 5.148438 -11.648438 5.265625 -11.328125 L 5.96875 -11.328125 C 6.113281 -10.941406 6.1875 -10.46875 6.1875 -9.90625 C 6.1875 -9.351562 5.953125 -8.875 5.484375 -8.46875 C 5.015625 -8.070312 4.425781 -7.875 3.71875 -7.875 C 2.101562 -7.875 1.296875 -8.648438 1.296875 -10.203125 C 1.296875 -12.515625 3.253906 -13.671875 7.171875 -13.671875 C 9.398438 -13.671875 10.941406 -13.289062 11.796875 -12.53125 C 12.648438 -11.769531 13.078125 -10.378906 13.078125 -8.359375 L 13.078125 -2.640625 C 13.078125 -1.671875 13.347656 -1.1875 13.890625 -1.1875 C 14.523438 -1.1875 14.898438 -2.148438 15.015625 -4.078125 L 15.4375 -4.046875 C 15.363281 -2.398438 15.054688 -1.265625 14.515625 -0.640625 C 13.972656 -0.0234375 13.082031 0.28125 11.84375 0.28125 C 9.59375 0.28125 8.296875 -0.410156 7.953125 -1.796875 C 7.710938 -1.085938 7.347656 -0.5625 6.859375 -0.21875 C 6.367188 0.113281 5.65625 0.28125 4.71875 0.28125 C 1.945312 0.28125 0.5625 -0.851562 0.5625 -3.125 C 0.5625 -4.457031 1.085938 -5.367188 2.140625 -5.859375 C 3.203125 -6.359375 4.832031 -6.609375 7.03125 -6.609375 Z M 5.90625 -3.15625 C 5.90625 -2.175781 5.957031 -1.546875 6.0625 -1.265625 C 6.164062 -0.984375 6.363281 -0.84375 6.65625 -0.84375 C 6.945312 -0.84375 7.21875 -1.082031 7.46875 -1.5625 C 7.71875 -2.039062 7.84375 -2.703125 7.84375 -3.546875 L 7.84375 -6.15625 L 7.65625 -6.15625 C 6.488281 -6.15625 5.90625 -5.300781 5.90625 -3.59375 Z M 5.90625 -3.15625 "/></g></g></g><g fill="#000000" fill-opacity="1"><g transform="translate(263.597015, 28.495066)"><g><path d="M 9.671875 -12.59375 C 8.984375 -12.59375 8.375 -12.144531 7.84375 -11.25 C 7.320312 -10.351562 7.0625 -9.285156 7.0625 -8.046875 L 7.0625 -0.5 L 9.0625 -0.5 L 9.0625 0 L 0.28125 0 L 0.28125 -0.5 L 1.828125 -0.5 L 1.828125 -12.875 L 0.28125 -12.875 L 0.28125 -13.390625 L 7.0625 -13.390625 L 7.0625 -10.6875 C 7.300781 -11.644531 7.765625 -12.378906 8.453125 -12.890625 C 9.148438 -13.410156 9.941406 -13.671875 10.828125 -13.671875 C 11.710938 -13.671875 12.429688 -13.421875 12.984375 -12.921875 C 13.535156 -12.421875 13.8125 -11.71875 13.8125 -10.8125 C 13.8125 -9.90625 13.601562 -9.207031 13.1875 -8.71875 C 12.78125 -8.226562 12.148438 -7.984375 11.296875 -7.984375 C 10.441406 -7.984375 9.8125 -8.265625 9.40625 -8.828125 C 9 -9.390625 8.945312 -10.171875 9.25 -11.171875 L 10.265625 -11.171875 C 10.734375 -12.117188 10.535156 -12.59375 9.671875 -12.59375 Z M 9.671875 -12.59375 "/></g></g></g></svg>