<svg xmlns="http://www.w3.org/2000/svg" xmlns:xlink="http://www.w3.org/1999/xlink" width="415" zoomAndPan="magnify" viewBox="0 0 311.25 37.5" height="50" preserveAspectRatio="xMidYMid meet" version="1.0"><defs><g/><clipPath id="4bee8bc5ab"><path d="M 1.675781 0 L 308.832031 0 L 308.832031 37.007812 L 1.675781 37.007812 Z M 1.675781 0 " clip-rule="nonzero"/></clipPath></defs><g clip-path="url(#4bee8bc5ab)"><path fill="#ffffff" d="M 1.675781 0 L 308.832031 0 L 308.832031 37.007812 L 1.675781 37.007812 Z M 1.675781 0 " fill-opacity="1" fill-rule="nonzero"/><path fill="#ffffff" d="M 1.675781 0 L 308.832031 0 L 308.832031 37.007812 L 1.675781 37.007812 Z M 1.675781 0 " fill-opacity="1" fill-rule="nonzero"/></g><g fill="#000000" fill-opacity="1"><g transform="translate(58.714019, 26.644737)"><g><path d="M 9.59375 -0.421875 L 7.96875 -5.21875 L 3.578125 -5.21875 L 1.859375 -0.421875 L 3.53125 -0.421875 L 3.53125 0 L 0.140625 0 L 0.140625 -0.421875 L 1.171875 -0.421875 L 6.84375 -15.671875 L 8.65625 -15.671875 L 14.25 -0.421875 L 15.28125 -0.421875 L 15.28125 0 L 8.015625 0 L 8.015625 -0.421875 Z M 5.859375 -11.53125 L 3.78125 -5.703125 L 7.796875 -5.703125 Z M 5.859375 -11.53125 "/></g></g></g><g fill="#000000" fill-opacity="1"><g transform="translate(74.123541, 26.644737)"><g><path d="M 0 -10.171875 L 0 -10.5625 L 6.640625 -10.5625 L 6.640625 -10.171875 L 5.234375 -10.171875 L 7.90625 -2.796875 L 10.296875 -10.171875 L 8.8125 -10.171875 L 8.8125 -10.5625 L 11.8125 -10.5625 L 11.8125 -10.171875 L 10.828125 -10.171875 L 7.546875 0 L 5.015625 0 L 0.90625 -10.171875 Z M 0 -10.171875 "/></g></g></g><g fill="#000000" fill-opacity="1"><g transform="translate(85.936034, 26.644737)"><g><path d="M 2.921875 0.21875 C 2.273438 0.21875 1.789062 0.03125 1.46875 -0.34375 C 1.15625 -0.71875 1 -1.175781 1 -1.71875 C 1 -2.257812 1.164062 -2.710938 1.5 -3.078125 C 1.832031 -3.453125 2.300781 -3.640625 2.90625 -3.640625 C 3.507812 -3.640625 3.988281 -3.484375 4.34375 -3.171875 C 4.707031 -2.859375 4.890625 -2.390625 4.890625 -1.765625 C 4.890625 -1.148438 4.722656 -0.664062 4.390625 -0.3125 C 4.054688 0.0390625 3.566406 0.21875 2.921875 0.21875 Z M 2.921875 0.21875 "/></g></g></g><g fill="#000000" fill-opacity="1"><g transform="translate(91.820078, 26.644737)"><g/></g></g><g fill="#000000" fill-opacity="1"><g transform="translate(95.816783, 26.644737)"><g><path d="M 7.21875 -0.25 C 7.957031 -0.25 8.609375 -0.445312 9.171875 -0.84375 C 9.742188 -1.238281 10.03125 -1.835938 10.03125 -2.640625 C 10.03125 -3.453125 9.722656 -4.070312 9.109375 -4.5 C 8.492188 -4.9375 7.617188 -5.3125 6.484375 -5.625 C 5.359375 -5.945312 4.539062 -6.222656 4.03125 -6.453125 C 3.519531 -6.691406 3.035156 -7.003906 2.578125 -7.390625 C 1.660156 -8.160156 1.203125 -9.351562 1.203125 -10.96875 C 1.203125 -12.28125 1.671875 -13.410156 2.609375 -14.359375 C 3.546875 -15.304688 4.832031 -15.78125 6.46875 -15.78125 C 7.25 -15.78125 8.0625 -15.664062 8.90625 -15.4375 C 9.757812 -15.207031 10.289062 -15.09375 10.5 -15.09375 C 10.707031 -15.09375 10.894531 -15.242188 11.0625 -15.546875 L 11.296875 -15.546875 L 11.453125 -11.0625 L 11.109375 -11.0625 C 10.390625 -12.34375 9.640625 -13.367188 8.859375 -14.140625 C 8.085938 -14.921875 7.242188 -15.3125 6.328125 -15.3125 C 5.421875 -15.3125 4.71875 -15.097656 4.21875 -14.671875 C 3.71875 -14.253906 3.46875 -13.695312 3.46875 -13 C 3.46875 -12.300781 3.765625 -11.757812 4.359375 -11.375 C 4.960938 -11 5.695312 -10.691406 6.5625 -10.453125 C 7.4375 -10.222656 8.007812 -10.0625 8.28125 -9.96875 C 8.5625 -9.882812 8.90625 -9.765625 9.3125 -9.609375 C 9.71875 -9.453125 10.050781 -9.285156 10.3125 -9.109375 C 10.570312 -8.941406 10.84375 -8.726562 11.125 -8.46875 C 11.414062 -8.207031 11.644531 -7.921875 11.8125 -7.609375 C 12.207031 -6.898438 12.40625 -6.054688 12.40625 -5.078125 C 12.40625 -3.484375 11.90625 -2.203125 10.90625 -1.234375 C 9.914062 -0.265625 8.601562 0.21875 6.96875 0.21875 L 6.6875 0.21875 L 6.046875 1.3125 C 6.347656 1.269531 6.585938 1.25 6.765625 1.25 C 8.328125 1.25 9.109375 1.90625 9.109375 3.21875 C 9.109375 3.820312 8.863281 4.359375 8.375 4.828125 C 7.882812 5.296875 7.117188 5.53125 6.078125 5.53125 C 5.398438 5.53125 4.847656 5.390625 4.421875 5.109375 C 4.003906 4.835938 3.796875 4.515625 3.796875 4.140625 C 3.796875 3.773438 3.882812 3.503906 4.0625 3.328125 C 4.238281 3.148438 4.46875 3.0625 4.75 3.0625 C 5.25 3.0625 5.585938 3.34375 5.765625 3.90625 L 5.203125 4.359375 C 5.203125 4.554688 5.257812 4.738281 5.375 4.90625 C 5.488281 5.082031 5.679688 5.171875 5.953125 5.171875 C 6.234375 5.171875 6.4375 5.039062 6.5625 4.78125 C 6.6875 4.519531 6.75 4.117188 6.75 3.578125 C 6.75 3.046875 6.734375 2.664062 6.703125 2.4375 C 6.660156 1.90625 6.441406 1.640625 6.046875 1.640625 C 5.835938 1.640625 5.613281 1.671875 5.375 1.734375 L 5.3125 1.53125 L 6.109375 0.171875 C 5.441406 0.128906 4.675781 0.0195312 3.8125 -0.15625 C 2.957031 -0.34375 2.457031 -0.4375 2.3125 -0.4375 C 2.164062 -0.4375 2.046875 -0.382812 1.953125 -0.28125 C 1.867188 -0.1875 1.773438 -0.0195312 1.671875 0.21875 L 1.359375 0.21875 L 1.125 -5.0625 L 1.515625 -5.0625 C 2.160156 -3.769531 2.988281 -2.644531 4 -1.6875 C 5.019531 -0.726562 6.09375 -0.25 7.21875 -0.25 Z M 7.21875 -0.25 "/></g></g></g><g fill="#000000" fill-opacity="1"><g transform="translate(109.13914, 26.644737)"><g><path d="M 6.0625 0.21875 C 4.15625 0.21875 2.722656 -0.269531 1.765625 -1.25 C 0.804688 -2.238281 0.328125 -3.609375 0.328125 -5.359375 C 0.328125 -7.117188 0.863281 -8.460938 1.9375 -9.390625 C 3.007812 -10.328125 4.378906 -10.796875 6.046875 -10.796875 C 9.398438 -10.796875 11.007812 -9.109375 10.875 -5.734375 L 4.625 -5.734375 L 4.625 -4.859375 C 4.625 -3.410156 4.804688 -2.316406 5.171875 -1.578125 C 5.546875 -0.835938 6.191406 -0.46875 7.109375 -0.46875 C 8.828125 -0.46875 9.953125 -1.382812 10.484375 -3.21875 L 10.875 -3.15625 C 10.59375 -2.082031 10.085938 -1.25 9.359375 -0.65625 C 8.628906 -0.0703125 7.53125 0.21875 6.0625 0.21875 Z M 4.640625 -6.171875 L 6.921875 -6.171875 L 6.921875 -7.265625 C 6.921875 -8.460938 6.847656 -9.28125 6.703125 -9.71875 C 6.566406 -10.15625 6.285156 -10.375 5.859375 -10.375 C 5.441406 -10.375 5.132812 -10.140625 4.9375 -9.671875 C 4.738281 -9.203125 4.640625 -8.398438 4.640625 -7.265625 Z M 4.640625 -6.171875 "/></g></g></g><g fill="#000000" fill-opacity="1"><g transform="translate(120.596362, 26.644737)"><g><path d="M 0 -10.171875 L 0 -10.5625 L 6.640625 -10.5625 L 6.640625 -10.171875 L 5.234375 -10.171875 L 7.90625 -2.796875 L 10.296875 -10.171875 L 8.8125 -10.171875 L 8.8125 -10.5625 L 11.8125 -10.5625 L 11.8125 -10.171875 L 10.828125 -10.171875 L 7.546875 0 L 5.015625 0 L 0.90625 -10.171875 Z M 0 -10.171875 "/></g></g></g><g fill="#000000" fill-opacity="1"><g transform="translate(132.408855, 26.644737)"><g><path d="M 0 -10.171875 L 0 -10.5625 L 6.640625 -10.5625 L 6.640625 -10.171875 L 5.234375 -10.171875 L 7.90625 -2.796875 L 10.296875 -10.171875 L 8.8125 -10.171875 L 8.8125 -10.5625 L 11.8125 -10.5625 L 11.8125 -10.171875 L 10.828125 -10.171875 L 7.546875 0 L 5.015625 0 L 0.90625 -10.171875 Z M 0 -10.171875 "/></g></g></g><g fill="#000000" fill-opacity="1"><g transform="translate(144.221349, 26.644737)"><g><path d="M 5.546875 -5.21875 L 6.1875 -5.21875 L 6.1875 -6.921875 C 6.1875 -8.328125 6.109375 -9.269531 5.953125 -9.75 C 5.804688 -10.238281 5.507812 -10.484375 5.0625 -10.484375 C 4.789062 -10.484375 4.546875 -10.410156 4.328125 -10.265625 C 4.117188 -10.128906 4.015625 -9.9375 4.015625 -9.6875 C 4.015625 -9.445312 4.0625 -9.203125 4.15625 -8.953125 L 4.703125 -8.953125 C 4.828125 -8.640625 4.890625 -8.265625 4.890625 -7.828125 C 4.890625 -7.390625 4.703125 -7.007812 4.328125 -6.6875 C 3.960938 -6.375 3.5 -6.21875 2.9375 -6.21875 C 1.65625 -6.21875 1.015625 -6.832031 1.015625 -8.0625 C 1.015625 -9.882812 2.5625 -10.796875 5.65625 -10.796875 C 7.414062 -10.796875 8.632812 -10.492188 9.3125 -9.890625 C 9.988281 -9.296875 10.328125 -8.195312 10.328125 -6.59375 L 10.328125 -2.09375 C 10.328125 -1.320312 10.539062 -0.9375 10.96875 -0.9375 C 11.46875 -0.9375 11.765625 -1.695312 11.859375 -3.21875 L 12.1875 -3.203125 C 12.125 -1.898438 11.878906 -1.003906 11.453125 -0.515625 C 11.023438 -0.0234375 10.320312 0.21875 9.34375 0.21875 C 7.570312 0.21875 6.550781 -0.328125 6.28125 -1.421875 C 6.09375 -0.859375 5.804688 -0.441406 5.421875 -0.171875 C 5.035156 0.0859375 4.472656 0.21875 3.734375 0.21875 C 1.535156 0.21875 0.4375 -0.675781 0.4375 -2.46875 C 0.4375 -3.519531 0.851562 -4.238281 1.6875 -4.625 C 2.53125 -5.019531 3.816406 -5.21875 5.546875 -5.21875 Z M 4.65625 -2.484375 C 4.65625 -1.710938 4.695312 -1.21875 4.78125 -1 C 4.863281 -0.78125 5.019531 -0.671875 5.25 -0.671875 C 5.476562 -0.671875 5.691406 -0.859375 5.890625 -1.234375 C 6.085938 -1.609375 6.1875 -2.128906 6.1875 -2.796875 L 6.1875 -4.859375 L 6.046875 -4.859375 C 5.117188 -4.859375 4.65625 -4.1875 4.65625 -2.84375 Z M 4.65625 -2.484375 "/></g></g></g><g fill="#000000" fill-opacity="1"><g transform="translate(156.411305, 26.644737)"><g><path d="M 0.140625 -16.65625 L 5.578125 -16.65625 L 5.578125 -0.40625 L 6.8125 -0.40625 L 6.8125 0 L 0.21875 0 L 0.21875 -0.40625 L 1.4375 -0.40625 L 1.4375 -16.25 L 0.140625 -16.25 Z M 0.140625 -16.65625 "/></g></g></g><g fill="#000000" fill-opacity="1"><g transform="translate(163.427749, 26.644737)"><g/></g></g><g fill="#000000" fill-opacity="1"><g transform="translate(167.424454, 26.644737)"><g><path d="M 0.5625 -15.546875 L 7.328125 -15.546875 L 7.328125 -15.125 L 6.109375 -15.125 L 6.109375 -8.109375 L 6.28125 -8.15625 L 12.546875 -15.125 L 10.796875 -15.125 L 10.796875 -15.546875 L 14.671875 -15.546875 L 14.671875 -15.125 L 13.34375 -15.125 L 9.53125 -10.859375 L 14.859375 -0.421875 L 16.046875 -0.421875 L 16.046875 0 L 8.921875 0 L 8.921875 -0.421875 L 9.96875 -0.421875 L 6.3125 -7.5 L 6.109375 -7.453125 L 6.109375 -0.421875 L 7.328125 -0.421875 L 7.328125 0 L 0.5625 0 L 0.5625 -0.421875 L 1.78125 -0.421875 L 1.78125 -15.125 L 0.5625 -15.125 Z M 0.5625 -15.546875 "/></g></g></g><g fill="#000000" fill-opacity="1"><g transform="translate(183.722132, 26.644737)"><g><path d="M 13.203125 0 L 8.15625 0 L 7.90625 -1.625 C 7.664062 -1.03125 7.3125 -0.570312 6.84375 -0.25 C 6.382812 0.0625 5.695312 0.21875 4.78125 0.21875 C 2.476562 0.21875 1.328125 -1.015625 1.328125 -3.484375 L 1.328125 -10.171875 L 0.09375 -10.171875 L 0.09375 -10.5625 L 5.46875 -10.5625 L 5.46875 -2.953125 C 5.46875 -2.066406 5.53125 -1.484375 5.65625 -1.203125 C 5.78125 -0.921875 6.03125 -0.78125 6.40625 -0.78125 C 6.78125 -0.78125 7.113281 -1.007812 7.40625 -1.46875 C 7.707031 -1.925781 7.859375 -2.5625 7.859375 -3.375 L 7.859375 -10.171875 L 6.84375 -10.171875 L 6.84375 -10.5625 L 11.984375 -10.5625 L 11.984375 -0.40625 L 13.203125 -0.40625 Z M 13.203125 0 "/></g></g></g><g fill="#000000" fill-opacity="1"><g transform="translate(197.155504, 26.644737)"><g><path d="M 7.640625 -9.953125 C 7.085938 -9.953125 6.601562 -9.59375 6.1875 -8.875 C 5.78125 -8.164062 5.578125 -7.320312 5.578125 -6.34375 L 5.578125 -0.40625 L 7.15625 -0.40625 L 7.15625 0 L 0.21875 0 L 0.21875 -0.40625 L 1.4375 -0.40625 L 1.4375 -10.171875 L 0.21875 -10.171875 L 0.21875 -10.5625 L 5.578125 -10.5625 L 5.578125 -8.4375 C 5.765625 -9.1875 6.128906 -9.765625 6.671875 -10.171875 C 7.222656 -10.585938 7.847656 -10.796875 8.546875 -10.796875 C 9.242188 -10.796875 9.8125 -10.597656 10.25 -10.203125 C 10.6875 -9.804688 10.90625 -9.25 10.90625 -8.53125 C 10.90625 -7.8125 10.738281 -7.257812 10.40625 -6.875 C 10.082031 -6.5 9.582031 -6.3125 8.90625 -6.3125 C 8.238281 -6.3125 7.742188 -6.53125 7.421875 -6.96875 C 7.109375 -7.414062 7.070312 -8.03125 7.3125 -8.8125 L 8.109375 -8.8125 C 8.472656 -9.570312 8.316406 -9.953125 7.640625 -9.953125 Z M 7.640625 -9.953125 "/></g></g></g><g fill="#000000" fill-opacity="1"><g transform="translate(208.146451, 26.644737)"><g><path d="M 13.203125 0 L 8.15625 0 L 7.90625 -1.625 C 7.664062 -1.03125 7.3125 -0.570312 6.84375 -0.25 C 6.382812 0.0625 5.695312 0.21875 4.78125 0.21875 C 2.476562 0.21875 1.328125 -1.015625 1.328125 -3.484375 L 1.328125 -10.171875 L 0.09375 -10.171875 L 0.09375 -10.5625 L 5.46875 -10.5625 L 5.46875 -2.953125 C 5.46875 -2.066406 5.53125 -1.484375 5.65625 -1.203125 C 5.78125 -0.921875 6.03125 -0.78125 6.40625 -0.78125 C 6.78125 -0.78125 7.113281 -1.007812 7.40625 -1.46875 C 7.707031 -1.925781 7.859375 -2.5625 7.859375 -3.375 L 7.859375 -10.171875 L 6.84375 -10.171875 L 6.84375 -10.5625 L 11.984375 -10.5625 L 11.984375 -0.40625 L 13.203125 -0.40625 Z M 13.203125 0 "/></g></g></g><g fill="#000000" fill-opacity="1"><g transform="translate(221.579823, 26.644737)"><g><path d="M 0.140625 -16.65625 L 5.578125 -16.65625 L 5.578125 -0.40625 L 6.8125 -0.40625 L 6.8125 0 L 0.21875 0 L 0.21875 -0.40625 L 1.4375 -0.40625 L 1.4375 -16.25 L 0.140625 -16.25 Z M 0.140625 -16.65625 "/></g></g></g><g fill="#000000" fill-opacity="1"><g transform="translate(228.596267, 26.644737)"><g><path d="M 5.546875 -5.21875 L 6.1875 -5.21875 L 6.1875 -6.921875 C 6.1875 -8.328125 6.109375 -9.269531 5.953125 -9.75 C 5.804688 -10.238281 5.507812 -10.484375 5.0625 -10.484375 C 4.789062 -10.484375 4.546875 -10.410156 4.328125 -10.265625 C 4.117188 -10.128906 4.015625 -9.9375 4.015625 -9.6875 C 4.015625 -9.445312 4.0625 -9.203125 4.15625 -8.953125 L 4.703125 -8.953125 C 4.828125 -8.640625 4.890625 -8.265625 4.890625 -7.828125 C 4.890625 -7.390625 4.703125 -7.007812 4.328125 -6.6875 C 3.960938 -6.375 3.5 -6.21875 2.9375 -6.21875 C 1.65625 -6.21875 1.015625 -6.832031 1.015625 -8.0625 C 1.015625 -9.882812 2.5625 -10.796875 5.65625 -10.796875 C 7.414062 -10.796875 8.632812 -10.492188 9.3125 -9.890625 C 9.988281 -9.296875 10.328125 -8.195312 10.328125 -6.59375 L 10.328125 -2.09375 C 10.328125 -1.320312 10.539062 -0.9375 10.96875 -0.9375 C 11.46875 -0.9375 11.765625 -1.695312 11.859375 -3.21875 L 12.1875 -3.203125 C 12.125 -1.898438 11.878906 -1.003906 11.453125 -0.515625 C 11.023438 -0.0234375 10.320312 0.21875 9.34375 0.21875 C 7.570312 0.21875 6.550781 -0.328125 6.28125 -1.421875 C 6.09375 -0.859375 5.804688 -0.441406 5.421875 -0.171875 C 5.035156 0.0859375 4.472656 0.21875 3.734375 0.21875 C 1.535156 0.21875 0.4375 -0.675781 0.4375 -2.46875 C 0.4375 -3.519531 0.851562 -4.238281 1.6875 -4.625 C 2.53125 -5.019531 3.816406 -5.21875 5.546875 -5.21875 Z M 4.65625 -2.484375 C 4.65625 -1.710938 4.695312 -1.21875 4.78125 -1 C 4.863281 -0.78125 5.019531 -0.671875 5.25 -0.671875 C 5.476562 -0.671875 5.691406 -0.859375 5.890625 -1.234375 C 6.085938 -1.609375 6.1875 -2.128906 6.1875 -2.796875 L 6.1875 -4.859375 L 6.046875 -4.859375 C 5.117188 -4.859375 4.65625 -4.1875 4.65625 -2.84375 Z M 4.65625 -2.484375 "/></g></g></g><g fill="#000000" fill-opacity="1"><g transform="translate(240.786223, 26.644737)"><g><path d="M 7.640625 -9.953125 C 7.085938 -9.953125 6.601562 -9.59375 6.1875 -8.875 C 5.78125 -8.164062 5.578125 -7.320312 5.578125 -6.34375 L 5.578125 -0.40625 L 7.15625 -0.40625 L 7.15625 0 L 0.21875 0 L 0.21875 -0.40625 L 1.4375 -0.40625 L 1.4375 -10.171875 L 0.21875 -10.171875 L 0.21875 -10.5625 L 5.578125 -10.5625 L 5.578125 -8.4375 C 5.765625 -9.1875 6.128906 -9.765625 6.671875 -10.171875 C 7.222656 -10.585938 7.847656 -10.796875 8.546875 -10.796875 C 9.242188 -10.796875 9.8125 -10.597656 10.25 -10.203125 C 10.6875 -9.804688 10.90625 -9.25 10.90625 -8.53125 C 10.90625 -7.8125 10.738281 -7.257812 10.40625 -6.875 C 10.082031 -6.5 9.582031 -6.3125 8.90625 -6.3125 C 8.238281 -6.3125 7.742188 -6.53125 7.421875 -6.96875 C 7.109375 -7.414062 7.070312 -8.03125 7.3125 -8.8125 L 8.109375 -8.8125 C 8.472656 -9.570312 8.316406 -9.953125 7.640625 -9.953125 Z M 7.640625 -9.953125 "/></g></g></g></svg>